<svg version="1.2" xmlns="http://www.w3.org/2000/svg" viewBox="0 0 1499 309" width="1499" height="309">
	<defs>
	</defs>
	<path id="Digital" style="fill: #ffd400;" aria-label="Digital"  d="m890.2 217l23.4-110.6h40.9q13.3 0 23.2 3.9 10 3.8 16 11.1 6.2 7.3 8.1 17.5 2 10.2-0.7 22.8-2.7 12.6-9 22.9-6.1 10.1-15.5 17.4-9.1 7.3-20.8 11.2-11.6 3.8-24.8 3.8zm36.5-26.9h9.8q12.9 0 21.5-7.4 8.6-7.4 11.5-21 2.8-13.6-2.7-21-5.4-7.4-18.2-7.4h-9.9zm73.5 26.8l17.1-80.2h30.2l-17.1 80.2zm19.4-91.8l5.1-23.5h30.2l-5.1 23.5zm57.9 130.4q-9.9 0-18.9-1.9-8.9-1.9-16.3-5.7l12.8-24.3q5.5 2.6 11.5 4.2 6 1.4 11.6 1.4 10.1 0 16.2-3.9 6.4-4 7.8-10.8l1.4-6.9q-4.9 4.1-11.1 6.3-6.1 2.1-13.1 2.1-8.8 0-15.5-2.9-6.4-3-10.4-8.3-3.8-5.4-4.9-12.8-1.1-7.5 1-16.6 1.9-9 6-16.5 4.2-7.4 10.1-12.6 6-5.4 13.4-8.2 7.6-3 16-3 8 0 13.7 2.8 5.7 2.7 9 7.8l2.4-9h28.3l-17.4 81.5q-1.7 8.4-6.5 15.3-4.7 6.8-11.8 11.7-7 4.9-16 7.6-8.8 2.7-19.3 2.7zm2.6-80.1q-1.8 7.7 1.4 12 3.3 4.2 10.4 4.2 7.1 0 11.9-4.2 4.9-4.3 6.4-11.9 1.6-7.6-1.5-11.8-3-4.3-10.3-4.3-7.1 0-12 4.3-4.8 4.1-6.3 11.7zm65.1 41.5l17.1-80.2h30.1l-17 80.2zm19.4-91.8l5.1-23.5h30.1l-5 23.5zm39 58l4.7-22.3h-10.6l5.2-24.1h10.6l4.5-21.5h30l-4.5 21.5h20.6l-5.2 24.1h-20.6l-4.5 21.7q-1.2 5.5 1.2 8.8 2.5 3.2 8.9 3.2 2.3 0 5.2-0.2 3-0.1 6.6-0.4l-5 23.3q-2.6 0.5-5.6 0.8-3 0.2-6 0.3-3 0-6 0.2-2.8 0-5.2 0-16.3 0-22.1-9.3-5.7-9.5-2.2-26.1zm62.6-6.3q1.9-9.3 6.2-16.9 4.4-7.8 10.4-13.3 6.2-5.5 13.6-8.5 7.6-3 15.9-3 17.9 0 24.4 10.7l2.7-9.1h27l-17.1 80.2h-28.3l1.6-9.3q-5.7 5.2-12.9 8.1-7.2 2.8-15.2 2.8-8.4 0-14.6-3-6.1-3-9.9-8.4-3.8-5.5-4.9-13.2-1-7.8 1.1-17.1zm30.5 0q-1.7 8 1.3 12.8 3.1 4.6 10.4 4.6 7.6 0 12.8-4.6 5.2-4.8 6.9-13 1.8-8-1.5-12.6-3.2-4.6-10.3-4.6-7.6 0-12.8 4.6-5.1 4.6-6.8 12.8zm66.4 40.1l24.5-115.3h30.1l-24.5 115.3z"/>
	<path id="Nordic" style="fill: #ffffff;"  aria-label="Nordic"  d="m345.6 106.4h30l30.3 60.8 12.8-60.8h30.2l-23.4 110.6h-29l-31.3-60.7-12.8 60.7h-30.2zm99.7 70.5q1.9-9.4 6.8-17.1 5.1-7.7 12.3-13.1 7.5-5.5 16.8-8.5 9.3-3 19.9-3 10.6 0 18.5 3 8.1 3 12.9 8.5 5.1 5.4 6.7 13.1 1.7 7.6-0.2 17.1-2 9.3-7.1 17-5 7.8-12.3 13.3-7.3 5.4-16.6 8.4-9.3 3-19.7 3-10.6 0-18.7-3-7.9-3-12.9-8.4-5.1-5.5-6.8-13.3-1.6-7.7 0.4-17zm30.8 0q-1.7 8 1.5 12.6 3.3 4.4 10.9 4.4 7.4 0 12.6-4.4 5.4-4.6 7.1-12.6 1.6-8.1-1.7-12.5-3.2-4.6-10.8-4.6-7.4 0-12.8 4.6-5.2 4.4-6.8 12.5zm147-41.7l-6.1 29q-9.7 0-16.6 1.9-7 1.8-11.7 4.9-4.8 3-7.4 6.8-2.6 3.8-3.4 7.9l-6.6 31.3h-30l17-80.3h28.8l-3.2 17.1q7.5-9 17.1-13.7 9.8-4.9 22.1-4.9zm-2.8 41.7q1.9-9.4 6.2-16.9 4.4-7.8 10.4-13.3 6.2-5.5 13.6-8.5 7.6-3 16-3 15.6 0 22.7 8.6l9-42.1h29.7l-24.5 115.3h-28.2l1.5-9.5q-5.6 5.4-12.8 8.2-7.1 2.9-15.3 2.9-8.4 0-14.5-3-6.2-3-10-8.4-3.8-5.5-4.9-13.3-0.9-7.7 1.1-17zm30.5 0q-1.7 8 1.3 12.8 3.1 4.5 10.3 4.5 7.5 0 12.8-4.5 5.2-4.8 6.9-13 1.7-8-1.4-12.6-3.2-4.6-10.3-4.6-7.6 0-12.8 4.6-5 4.6-6.8 12.8zm66.5 40.1l17-80.3h30.2l-17 80.3zm19.4-91.8l5-23.5h30.2l-5 23.5zm114.4 21.2l-15.3 18.9q-1.7-2.7-6-4.4-4.1-1.7-9.3-1.7-9.3 0-15.5 4.7-6.2 4.6-7.9 12.7-1.7 8.5 2.4 13.2 4.1 4.8 12.6 4.8 5.7 0 10.6-1.8 5.1-1.7 8.2-4.6l9.2 17.7q-7.3 6-17.1 9.4-9.8 3.3-20.2 3.3-10.1 0-17.9-2.9-7.7-3-12.6-8.3-4.7-5.6-6.5-13.2-1.7-7.5 0.3-16.9 1.9-9.3 7-17 5.2-7.9 12.5-13.5 7.2-5.5 16.6-8.5 9.4-3.1 20.2-3.1 9.5 0 16.9 2.8 7.4 2.8 11.8 8.4z"/>
</svg>