<?xml version="1.0" encoding="UTF-8"?> <svg xmlns="http://www.w3.org/2000/svg" width="24" height="24" viewBox="0 0 24 24" fill="none"><path d="M12 1L15.668 8.568L24 9.719L17.936 15.547L19.416 23.826L12 19.859L4.583 23.826L6.064 15.547L0 9.719L8.332 8.568L12 1Z" fill="#FF9BA6"></path><path d="M12 2.14641L15.2181 8.78607L15.3347 9.0267L15.5996 9.0633L22.9099 10.0732L17.5895 15.1865L17.3968 15.3718L17.4438 15.635L18.7423 22.8986L12.2358 19.4181L12 19.292L11.7642 19.4181L5.25684 22.8986L6.55619 15.635L6.60328 15.3718L6.41047 15.1865L1.09007 10.0732L8.40042 9.0633L8.66531 9.0267L8.78194 8.78607L12 2.14641Z" stroke="black" stroke-opacity="0.3"></path></svg> 