<svg xmlns="http://www.w3.org/2000/svg" id="Layer_1" data-name="Layer 1" viewBox="0 0 68.03 68.03"><defs><style>.cls-2{fill:#fff}.cls-5{isolation:isolate}</style></defs><rect width="44.54" height="59.38" x="11.76" y="4.33" rx="4.45" style="fill:#2050e0"/><path d="M37 22.06h-.41v-1.27a2.59 2.59 0 1 0-5.18 0v1.27H31a.83.83 0 0 0-.82.84v3.39a.83.83 0 0 0 .82.84h6a.83.83 0 0 0 .82-.84V22.9a.83.83 0 0 0-.82-.84m-1.77 0H32.8v-1.27a1.23 1.23 0 1 1 2.46 0Z" class="cls-2"/><path d="m34 9.52.43 1.4h1.41l-1.14.87.43 1.4-1.13-.87-1.13.87.43-1.4-1.13-.87h1.4Zm0 23.06.43 1.4h1.41l-1.14.86.43 1.4-1.13-.86-1.13.86.43-1.4-1.1-.84h1.4Zm5.77-21 .43 1.4h1.4l-1.13.86.43 1.4-1.13-.86-1.14.86.43-1.4L38 13h1.4Zm4.68 15.12.44 1.4h1.4l-1.13.9.43 1.4-1.14-.87-1.13.87.43-1.4-1.13-.87H44Zm1.11-5.65.43 1.4h1.4l-1.13.86.43 1.41-1.13-.87-1.13.87.43-1.41-1.14-.86h1.41Zm-23.06 0 .44 1.4h1.4l-1.14.86.44 1.41-1.14-.87-1.13.87.43-1.41-1.13-.86h1.4Zm1 5.65.43 1.4h1.4l-1.17.9.43 1.4-1.13-.87-1.13.87.43-1.4-1.13-.87H23Zm21-11.45.44 1.4h1.4l-1.13.86.43 1.4-1.14-.86-1.13.86.43-1.4-1.13-.86H44Zm-20.51 0 .43 1.4h1.4l-1.13.86.43 1.4-1.13-.86-1.14.86.44-1.4-1.14-.86h1.4Zm16.9 16.28.44 1.4h1.4l-1.14.86.44 1.4-1.14-.86-1.13.86.43-1.4-1.19-.86h1.4ZM28.27 11.62 28.7 13h1.4l-1.1.88.43 1.4-1.13-.86-1.13.86.43-1.4-1.17-.88h1.41Zm-1.05 19.91.43 1.4h1.4l-1.13.86.43 1.4-1.13-.86-1.13.86.43-1.4-1.13-.86h1.4Z" style="fill:#f8d12e"/><path d="M23.64 45.52a2.56 2.56 0 0 0 2.72 2.6 2.92 2.92 0 0 0 2.23-1v-2h-2.43v1.08h1.16v.42a1.56 1.56 0 0 1-.95.3 1.45 1.45 0 0 1 0-2.9 1.25 1.25 0 0 1 1.07.59l1.09-.57a2.37 2.37 0 0 0-2.16-1.17 2.56 2.56 0 0 0-2.73 2.65M29.35 48v-5h2.12a2.52 2.52 0 1 1 0 5Zm1.3-1.13h.82a1.33 1.33 0 0 0 1.39-1.39 1.28 1.28 0 0 0-1.38-1.37h-.83v2.79ZM34.84 48v-5h2.52a1.66 1.66 0 1 1 0 3.32h-1.22V48Zm2.95-3.36a.55.55 0 0 0-.6-.57h-1v1.13h1a.55.55 0 0 0 .6-.53ZM42.5 48l-.84-1.7H41V48h-1.3v-5h2.53A1.62 1.62 0 0 1 44 44.68a1.51 1.51 0 0 1-1 1.5L44 48Zm.15-3.37a.58.58 0 0 0-.65-.53h-1v1.13h1a.58.58 0 0 0 .63-.57Z" style="fill:#fff;fill-rule:evenodd"/><g class="cls-5"><g class="cls-5"><path d="M19.59 52.63a.7.7 0 0 0-.2-.22.6.6 0 0 0-.26-.15.8.8 0 0 0-.31 0 1 1 0 0 0-.5.11.9.9 0 0 0-.33.31 1.2 1.2 0 0 0-.19.43 2.2 2.2 0 0 0-.06.51 2 2 0 0 0 .06.49 1.2 1.2 0 0 0 .19.42.9.9 0 0 0 .33.31 1.1 1.1 0 0 0 .5.11.82.82 0 0 0 .63-.24 1.13 1.13 0 0 0 .27-.65h.85a2 2 0 0 1-.17.67 2 2 0 0 1-.37.52 1.6 1.6 0 0 1-.54.32 2 2 0 0 1-.67.11 2 2 0 0 1-.82-.16 1.8 1.8 0 0 1-.62-.44 2 2 0 0 1-.38-.65 2.4 2.4 0 0 1-.13-.81 2.5 2.5 0 0 1 .13-.83 2.2 2.2 0 0 1 .38-.66 1.9 1.9 0 0 1 .62-.45 2.1 2.1 0 0 1 .82-.16 1.8 1.8 0 0 1 .62.1 1.5 1.5 0 0 1 .52.27 1.4 1.4 0 0 1 .39.45 1.7 1.7 0 0 1 .19.61h-.85a.8.8 0 0 0-.1-.32m1.67.11a2 2 0 0 1 .39-.66 1.8 1.8 0 0 1 .61-.45 2.2 2.2 0 0 1 .82-.16 2.2 2.2 0 0 1 .83.16 1.85 1.85 0 0 1 1 1.11 2.5 2.5 0 0 1 .14.83 2.4 2.4 0 0 1-.14.81 1.7 1.7 0 0 1-.38.65 1.8 1.8 0 0 1-.61.44 2.2 2.2 0 0 1-1.65 0 1.8 1.8 0 0 1-.61-.44 1.85 1.85 0 0 1-.39-.65 2.4 2.4 0 0 1-.13-.81 2.5 2.5 0 0 1 .12-.83m.8 1.32a1.2 1.2 0 0 0 .19.42 1 1 0 0 0 .33.31 1.1 1.1 0 0 0 .5.11 1.1 1.1 0 0 0 .51-.11 1.1 1.1 0 0 0 .33-.31 1.5 1.5 0 0 0 .19-.42 2.6 2.6 0 0 0 .05-.49 3 3 0 0 0-.05-.51 1.4 1.4 0 0 0-.19-.43 1.1 1.1 0 0 0-.33-.31 1 1 0 0 0-.51-.11 1 1 0 0 0-.5.11 1 1 0 0 0-.33.31 1.2 1.2 0 0 0-.19.43 2.2 2.2 0 0 0-.06.51 2 2 0 0 0 .06.49M27 51.57l.93 2.73.88-2.73h1.23v4h-.81v-2.85l-1 2.82h-.67l-1-2.79v2.79h-.82v-4Zm5.75 0a1.8 1.8 0 0 1 .64.1 1.3 1.3 0 0 1 .42.29 1.1 1.1 0 0 1 .24.41 1.42 1.42 0 0 1 0 .94 1.06 1.06 0 0 1-.24.41 1.3 1.3 0 0 1-.42.29 1.8 1.8 0 0 1-.64.11h-.91v1.42H31v-4Zm-.23 1.87a1.3 1.3 0 0 0 .28 0 .6.6 0 0 0 .25-.08.5.5 0 0 0 .17-.18.83.83 0 0 0 0-.62.6.6 0 0 0-.17-.18.6.6 0 0 0-.25-.08 1.3 1.3 0 0 0-.28 0h-.68v1.2Zm3.17-1.87v3.24h1.94v.73h-2.82v-4Zm3.44 0v4h-.88v-4Zm2.87 0 1.48 4h-.9l-.3-.88h-1.47l-.31.88h-.88l1.5-4ZM42 54l-.5-1.45L41 54Zm2.86-2.43 1.66 2.66v-2.66h.82v4h-.88l-1.65-2.66v2.66H44v-4Zm3.08.73v-.73h3.26v.73H50v3.24h-.88V52.3Z" class="cls-2"/></g></g></svg>