<?xml version="1.0" encoding="UTF-8"?> <svg xmlns="http://www.w3.org/2000/svg" xmlns:xlink="http://www.w3.org/1999/xlink" width="750" zoomAndPan="magnify" viewBox="0 0 750 749.999995" height="749.999995" preserveAspectRatio="xMidYMid meet" version="1.0"><defs><clipPath id="clip-0"><path d="M 88 78.140625 L 524 78.140625 L 524 603 L 88 603 Z M 88 78.140625 " clip-rule="nonzero"></path></clipPath><clipPath id="clip-1"><path d="M 444 444 L 662.289062 444 L 662.289062 672.140625 L 444 672.140625 Z M 444 444 " clip-rule="nonzero"></path></clipPath></defs><path fill="rgb(52.549744%, 76.078796%, 19.60907%)" d="M 365.140625 375.140625 C 365.140625 364.21875 356.265625 355.339844 345.347656 355.339844 L 335.449219 355.339844 L 335.449219 394.941406 L 345.347656 394.941406 C 356.265625 394.941406 365.140625 386.058594 365.140625 375.140625 Z M 365.140625 375.140625 " fill-opacity="1" fill-rule="nonzero"></path><path fill="rgb(52.549744%, 76.078796%, 19.60907%)" d="M 276.070312 424.640625 L 276.070312 375.140625 C 276.070312 364.21875 267.195312 355.339844 256.277344 355.339844 L 246.378906 355.339844 L 246.378906 444.441406 L 256.277344 444.441406 C 267.195312 444.441406 276.070312 435.558594 276.070312 424.640625 Z M 276.070312 424.640625 " fill-opacity="1" fill-rule="nonzero"></path><path fill="rgb(52.549744%, 76.078796%, 19.60907%)" d="M 434.417969 355.339844 L 424.523438 355.339844 L 424.523438 394.941406 L 434.417969 394.941406 C 445.335938 394.941406 454.210938 386.058594 454.210938 375.140625 C 454.210938 364.21875 445.335938 355.339844 434.417969 355.339844 Z M 434.417969 355.339844 " fill-opacity="1" fill-rule="nonzero"></path><g clip-path="url(#clip-0)"><path fill="rgb(52.549744%, 76.078796%, 19.60907%)" d="M 127.621094 602.839844 L 455.21875 602.839844 C 446.394531 587.207031 439.277344 570.515625 434.460938 552.855469 L 420.070312 500.070312 L 447.230469 492.316406 C 476.285156 484.007812 502.246094 468.664062 523.488281 447.683594 L 523.488281 305.839844 L 493.796875 305.839844 L 493.796875 266.238281 C 493.796875 162.355469 409.609375 78.140625 305.761719 78.140625 C 201.910156 78.140625 117.722656 162.355469 117.722656 266.238281 L 117.722656 305.839844 L 88.03125 305.839844 L 88.03125 563.238281 C 88.03125 585.109375 105.757812 602.839844 127.621094 602.839844 Z M 167.207031 444.441406 C 178.125 444.441406 187 435.558594 187 424.640625 L 187 414.738281 L 177.105469 414.738281 L 177.105469 394.941406 L 206.792969 394.941406 L 206.792969 424.640625 C 206.792969 446.476562 189.035156 464.238281 167.207031 464.238281 C 145.378906 464.238281 127.621094 446.476562 127.621094 424.640625 L 127.621094 375.140625 C 127.621094 353.304688 145.378906 335.539062 167.207031 335.539062 C 189.035156 335.539062 206.792969 353.304688 206.792969 375.140625 L 187 375.140625 C 187 364.21875 178.125 355.339844 167.207031 355.339844 C 156.289062 355.339844 147.414062 364.21875 147.414062 375.140625 L 147.414062 424.640625 C 147.414062 435.558594 156.289062 444.441406 167.207031 444.441406 Z M 290.640625 563.238281 L 266.175781 551.402344 L 241.707031 563.238281 L 246.378906 538.167969 L 226.585938 520.410156 L 253.941406 516.753906 L 266.175781 493.941406 L 278.40625 516.753906 L 305.761719 520.410156 L 285.96875 538.167969 Z M 226.585938 464.238281 L 226.585938 335.539062 L 256.277344 335.539062 C 278.105469 335.539062 295.863281 353.304688 295.863281 375.140625 L 295.863281 424.640625 C 295.863281 446.476562 278.105469 464.238281 256.277344 464.238281 Z M 399.503906 563.238281 L 375.039062 551.402344 L 350.570312 563.238281 L 355.246094 538.167969 L 335.449219 520.410156 L 362.804688 516.753906 L 375.039062 493.941406 L 387.269531 516.753906 L 414.625 520.410156 L 394.832031 538.167969 Z M 315.65625 464.238281 L 315.65625 335.539062 L 345.347656 335.539062 C 367.175781 335.539062 384.933594 353.304688 384.933594 375.140625 C 384.933594 396.976562 367.175781 414.738281 345.347656 414.738281 L 335.449219 414.738281 L 335.449219 464.238281 Z M 468.863281 444.441406 L 474.003906 444.441406 L 474.003906 464.238281 L 459.351562 464.238281 L 424.523438 420.6875 L 424.523438 464.238281 L 404.726562 464.238281 L 404.726562 335.539062 L 434.417969 335.539062 C 456.246094 335.539062 474.003906 353.304688 474.003906 375.140625 C 474.003906 393.621094 461.285156 409.179688 444.144531 413.53125 Z M 177.105469 266.238281 C 177.105469 195.160156 234.707031 137.539062 305.761719 137.539062 C 376.816406 137.539062 434.417969 195.160156 434.417969 266.238281 L 434.417969 305.839844 L 177.105469 305.839844 Z M 145.078125 516.753906 L 157.308594 493.941406 L 169.542969 516.753906 L 196.898438 520.410156 L 177.105469 538.167969 L 181.777344 563.238281 L 157.308594 551.402344 L 132.84375 563.238281 L 137.515625 538.167969 L 117.722656 520.410156 Z M 145.078125 516.753906 " fill-opacity="1" fill-rule="nonzero"></path></g><g clip-path="url(#clip-1)"><path fill="rgb(52.549744%, 76.078796%, 19.60907%)" d="M 662.042969 513.738281 L 653.699219 511.355469 C 614.0625 500.027344 578.929688 476.640625 553.179688 444.441406 C 527.425781 476.640625 492.296875 500.027344 452.660156 511.355469 L 444.316406 513.738281 L 453.558594 547.644531 C 466.703125 595.863281 497.535156 637.351562 539.902344 663.839844 L 553.179688 672.140625 L 566.457031 663.839844 C 608.824219 637.351562 639.652344 595.863281 652.800781 547.644531 Z M 533.386719 606.9375 L 496.699219 570.238281 L 510.691406 556.242188 L 533.386719 578.941406 L 595.664062 516.640625 L 609.660156 530.640625 Z M 533.386719 606.9375 " fill-opacity="1" fill-rule="nonzero"></path></g></svg> 