<svg style="opacity:1;" viewBox="0 0 724 160" fill="none" width="1200" height="180" xmlns="http://www.w3.org/2000/svg">
	<g id="mentor-thailand">
		<g id="mentor-logotype">
			<path style="fill: currentColor" class="s0" d="m10.25 152.39v-144.58h57.04l40.01 106.34 37.36-106.34h55.05v144.58h-35.37v-91.3l-36.93 91.3h-45.31l-35.49-91.3v91.3z"/>
			<path style="fill: currentColor" class="s0" d="m540.62 72.58c-2.65 4.64-6.2 8.62-7.08 13.93-2.43 10.61 1.33 21.67 9.06 29.18 7.08 7.08 16.81 9.29 26.76 7.74 9.5-2.21 19.45-10.39 22.33-19.9 4.2-12.6 0.44-25.87-9.07-34.49-6.19-5.3-13.7-8.01-21.66-8.45h-69.68v91.8h-36.44v-144.91h36.44v23.54h79.4c22.28 0 42.23 16.8 50.85 38.02 9.73 20.79 5.09 47.98-10.61 64.56-16.58 18.35-39.79 25.42-63.45 19.89-21.67-6.18-44-26.3-46.43-49.96-1.77-11.05 0-21.88 4.64-30.95z"/>
			<path style="fill: currentColor" class="s0" d="m435.5 40.86c9.62 10.7 10.66 24.65 10.66 38.35v73.18h-33.66v-45.54c0-17.25-2.98-39.24-12.27-44-9.28-4.75-15.47-2.43-21.88 0.89-5.75 3.54-9.73 8.73-9.73 15.26v52.39h-33.88v-100.26h32.77c0 3.94 1.32 7.99 2.21 11.39 6.19-4.2 11.28-9.95 18.35-12.61 15.7-5.3 35.48-2.31 47.43 10.95z"/>
			<path style="fill: currentColor" class="s0" d="m669.29 31.68c1.54 2.88 1.1 6.2 1.32 9.51l0.89 0.89c9.5-15.7 29.4-8.85 45.54-10.18l0.22 29.63c-13.49 0-27.41-1.77-38.69 2.88-6.19 3.75-8.18 10.16-8.4 17.01v70.97h-38.03v-120.71z"/>
			<path style="fill: currentColor" class="s0" d="m318.65 56.44c7.74 14.59 9.29 32.72 9.07 49.75l-1.33 0.66-78.71 0.22c-1.1 0.67-0.88 1.77-0.66 2.43 9.29 10.84 22.99 16.81 36.92 15.48 11.5-1.11 21-6.64 30.51-12.61l0.66 0.67v25.86c-7.51 7.96-18.12 10.62-27.86 13.71-25.42 4.64-51.95-1.1-68.31-22.11-12.82-16.8-16.8-42.66-9.06-63.22 5.97-17.69 23.21-35.6 42-39.13 26.31-6.86 54.17 5.31 66.77 28.29zm-41.12 1.55c-5.97-3.31-15.92-3.31-21.67 0.66-6.63 3.98-10.39 10.62-10.17 18.35 0.23 1.33 1.77 1.77 3.1 1.77h37.58l1.55-1.33c0.44-3.75-0.67-7.51-1.99-10.83-1.77-3.31-5.08-6.41-8.4-8.62z"/>
		</g>
	</g>
</svg>