<svg width="720" height="420" viewBox="0 0 720 420" fill="none" xmlns="http://www.w3.org/2000/svg">
<circle cx="347.231" cy="200.942" r="136.645" stroke="#E0EDFF" stroke-width="101.721"/>
<path d="M509.09 201.325C509.07 240.14 494.94 277.624 469.333 306.795C443.726 335.965 408.388 354.832 369.902 359.881C331.416 364.929 292.408 355.816 260.143 334.237C227.879 312.659 204.558 280.088 194.527 242.591C184.495 205.095 188.436 165.23 205.616 130.424C222.796 95.6172 252.043 68.2429 287.908 53.4002C323.773 38.5576 363.811 37.2588 400.563 49.7458C437.315 62.2329 468.275 87.6542 487.674 121.274C501.749 145.601 509.138 173.219 509.09 201.325Z" fill="white"/>
<path d="M509.09 201.24H434.509C434.509 172.097 430.36 144.772 423.091 121.24H487.711C501.759 145.553 509.134 173.153 509.09 201.24Z" fill="#FF6633"/>
<path d="M189.091 201.24H263.672C263.672 172.097 267.822 144.772 275.091 121.24H210.471C196.423 145.553 189.047 173.153 189.091 201.24Z" fill="#FFCD89"/>
<path d="M434.495 201.24H509.09C509.134 229.328 501.757 256.928 487.706 281.24H423.091C425.182 274.459 427.018 267.352 428.561 259.972C432.556 240.652 434.544 220.97 434.495 201.24Z" fill="white"/>
<path d="M487.091 121.24H422.672C407.989 73.4126 380.54 41.2402 349.091 41.2402C377.062 41.228 404.542 48.6154 428.768 62.6592C452.993 76.703 473.109 96.9077 487.091 121.24Z" fill="white"/>
<path d="M422.689 281.24H487.091C473.112 305.571 452.997 325.775 428.771 339.819C404.546 353.863 377.063 361.251 349.091 361.24C380.54 361.24 407.989 329.058 422.689 281.24Z" fill="#FF6633"/>
<path d="M274.493 281.24H210.091C224.07 305.571 244.184 325.775 268.41 339.819C292.636 353.863 320.118 361.251 348.091 361.24C316.642 361.24 289.193 329.058 274.493 281.24Z" fill="#FFCD89"/>
<path d="M434.091 201.24H349.091V121.24H422.703C429.952 144.772 434.091 172.098 434.091 201.24Z" fill="white"/>
<path d="M349.091 201.24H434.09C434.139 220.97 432.156 240.652 428.173 259.972C426.635 267.354 424.804 274.461 422.719 281.24H349.091V201.24Z" fill="#F6821F"/>
<path d="M348.091 201.24H263.092C263.042 220.97 265.025 240.652 269.008 259.972C270.547 267.354 272.377 274.461 274.463 281.24H348.091V201.24Z" fill="#FBAD41"/>
<path d="M349.091 281.24H423.091C408.311 329.058 380.712 361.24 349.091 361.24V281.24Z" fill="white"/>
<path d="M423.091 121.24H349.091V41.2402C380.719 41.2402 408.324 73.4126 423.091 121.24Z" fill="#F6821F"/>
<path d="M275.091 121.24H348.091V41.2402C316.89 41.2402 289.658 73.4126 275.091 121.24Z" fill="#FBAD41"/>
<path d="M348.091 281.24V361.24C379.721 361.24 407.315 329.058 422.091 281.24H348.091Z" fill="#F6821F"/>
<path d="M349.091 281.24V361.24C317.46 361.24 289.866 329.058 275.091 281.24H349.091Z" fill="#FBAD41"/>
<path d="M348.091 121.243V201.24H434.091C434.091 172.097 429.903 144.772 422.586 121.24L348.091 121.243Z" fill="#F6821F"/>
<path d="M349.091 121.243V201.24H263.091C263.091 172.097 267.278 144.772 274.596 121.24L349.091 121.243Z" fill="#FBAD41"/>
<path d="M348.091 41.2402C379.768 41.2402 407.434 73.4126 422.222 121.24H487.091C473.008 96.9077 452.746 76.703 428.345 62.6592C403.944 48.6154 376.264 41.228 348.091 41.2402Z" fill="#FF6633"/>
<path d="M349.091 41.2402C317.414 41.2402 289.747 73.4126 274.96 121.24H210.091C224.174 96.9077 244.435 76.703 268.836 62.6592C293.237 48.6154 320.917 41.228 349.091 41.2402Z" fill="#FFCD89"/>
<path d="M423.091 281.24H487.703C501.756 256.928 509.135 229.328 509.09 201.24H434.481C434.481 230.392 430.33 257.704 423.091 281.24Z" fill="#FF6633"/>
<path d="M275.091 281.24H210.479C196.425 256.928 189.046 229.328 189.091 201.24H263.7C263.7 230.392 267.852 257.704 275.091 281.24Z" fill="#FFCD89"/>
<path d="M432.407 202.678C432.364 221.902 430.386 241.074 426.501 259.901L432.407 202.678ZM432.407 202.678H349.823V280.161M432.407 202.678L349.823 280.161M349.823 280.161H421.346C423.307 273.691 425.036 266.923 426.501 259.903L349.823 280.161ZM484.341 282.8C479.467 290.964 473.842 298.719 467.506 305.959C442.181 334.898 407.233 353.614 369.172 358.623C368.882 358.661 368.592 358.699 368.302 358.735C377.047 354.928 385.245 348.667 392.683 340.418C405.352 326.368 415.892 306.476 423.291 282.8H484.341ZM485.882 280.161H424.098C425.921 274.071 427.539 267.728 428.928 261.168L428.93 261.168L429.042 260.627C429.055 260.564 429.068 260.502 429.081 260.439L429.234 259.706L429.231 259.705C433.054 240.937 435 221.833 435.042 202.678H506.82C506.573 230.046 499.282 256.705 485.882 280.161ZM392.681 62.2216C385.089 53.8032 376.706 47.4574 367.756 43.6769C378.486 44.9901 389.123 47.4115 399.495 50.9466C435.089 63.0779 465.19 87.5153 484.44 119.847H423.28C415.888 96.1638 405.351 76.2703 392.681 62.2216ZM329.128 43.7137C320.209 47.4984 311.853 53.8303 304.283 62.2215C291.609 76.2701 281.067 96.1636 273.677 119.847H212.741C230.141 90.6207 256.521 67.6743 288.083 54.5719C301.318 49.0776 315.128 45.4541 329.128 43.7137ZM304.281 340.418C311.698 348.641 319.869 354.887 328.584 358.698C304.446 355.611 281.155 346.957 260.625 333.184C241.029 320.038 224.769 302.778 212.841 282.8H273.665C281.064 306.476 291.608 326.368 304.281 340.418ZM469.773 307.948C495.58 278.459 509.819 240.566 509.84 201.327C509.888 172.914 502.442 144.994 488.257 120.4C468.707 86.4128 437.505 60.713 400.466 48.0891C363.427 35.4651 323.075 36.7781 286.929 51.7835C250.783 66.7889 221.308 94.463 203.995 129.65C186.681 164.837 182.709 205.137 192.819 243.043C202.929 280.949 226.431 313.877 258.947 335.691C291.464 357.506 330.778 366.72 369.565 361.616C408.352 356.512 443.966 337.438 469.773 307.948ZM435.04 200.039C434.923 171.899 430.969 145.46 424.087 122.486H485.978C499.47 146.107 506.649 172.822 506.824 200.039H435.04ZM390.725 63.9902C402.934 77.5275 413.219 96.7669 420.517 119.847H349.823V42.5134C350.99 42.5226 352.158 42.5446 353.326 42.5797C366.82 44.0423 379.548 51.5956 390.725 63.9902ZM349.823 200.039V122.486H421.334C428.278 145.371 432.286 171.826 432.404 200.039H349.823ZM347.187 42.5149V119.847H276.439C283.737 96.7671 294.026 77.5277 306.239 63.9904C317.398 51.6212 330.1 44.0734 343.564 42.5888C344.772 42.5503 345.979 42.5256 347.187 42.5149ZM264.569 200.039C264.687 171.826 268.695 145.371 275.623 122.486H347.187V200.039H264.569ZM206.698 130.984C208.118 128.099 209.621 125.265 211.204 122.486H272.871C266.004 145.459 262.051 171.898 261.934 200.039H190.359C190.539 176.259 196.045 152.635 206.698 130.984ZM264.569 202.678H347.187V280.161H275.611C268.702 257.29 264.694 230.872 264.569 202.678ZM306.237 338.649C294.025 325.111 283.733 305.873 276.428 282.8H347.187V359.966C345.379 359.95 343.572 359.902 341.767 359.824C328.971 357.891 316.9 350.471 306.237 338.649ZM190.361 202.678H261.934C262.057 230.8 266.011 257.204 272.86 280.161H211.299C204.548 268.344 199.292 255.619 195.731 242.264C192.26 229.251 190.48 215.951 190.361 202.678ZM349.823 282.8H420.528C413.222 305.873 402.935 325.111 390.727 338.649C380.045 350.496 367.949 357.922 355.125 359.836C353.356 359.91 351.589 359.953 349.823 359.967V282.8Z" fill="#FF6633" stroke="#FF6633" stroke-width="1.5" stroke-miterlimit="10"/>
<ellipse cx="347" cy="225.74" rx="162" ry="118.5" fill="url(#paint0_radial_1855_1646)"/>
<path d="M204.843 271.61C182.694 286.024 179.5 304.5 182.694 311.689C196.39 342.513 262.77 315.422 357.638 242.508C452.505 169.593 515.727 92.6803 495.173 65.9372C486.132 54.174 467.691 51.8729 436.5 62.5001" stroke="url(#paint1_linear_1855_1646)" stroke-width="3"/>
<path d="M193 151.5C165 145.5 153.023 157.437 150.5 164.5C140.5 192.5 206.094 224.01 324.675 239.978C443.256 255.947 542.382 246.639 546.883 213.211C548.69 199.791 534.867 185.305 510 171.738" stroke="url(#paint2_linear_1855_1646)" stroke-width="3"/>
<path d="M511.5 200.5C511.5 290.527 438.742 363.5 349 363.5C259.258 363.5 186.5 290.527 186.5 200.5C186.5 110.473 259.258 37.5 349 37.5C438.742 37.5 511.5 110.473 511.5 200.5Z" stroke="#CE2F55" stroke-width="3"/>
<path d="M414.439 208.649L414.942 206.959C415.257 206.103 415.364 205.189 415.253 204.287C415.143 203.385 414.818 202.52 414.304 201.759C413.793 201.113 413.135 200.589 412.379 200.228C411.624 199.868 410.793 199.68 409.95 199.679L374.381 199.241C374.272 199.238 374.166 199.21 374.071 199.161C373.975 199.112 373.892 199.042 373.829 198.958C373.766 198.869 373.726 198.766 373.713 198.659C373.7 198.552 373.715 198.444 373.755 198.343C373.812 198.173 373.921 198.023 374.067 197.913C374.214 197.803 374.392 197.739 374.577 197.728L410.477 197.291C412.769 197.053 414.951 196.223 416.795 194.89C418.638 193.556 420.074 191.769 420.952 189.715L423 184.562C423.057 184.423 423.086 184.274 423.086 184.125C423.092 184.042 423.092 183.959 423.086 183.877C421.979 179.079 419.274 174.763 415.384 171.585C411.494 168.407 406.632 166.541 401.54 166.274C396.448 166.006 391.404 167.35 387.178 170.101C382.953 172.853 379.776 176.86 378.134 181.513C376.39 180.256 374.284 179.552 372.107 179.497C369.93 179.442 367.789 180.039 365.979 181.206C364.169 182.373 362.78 184.052 362.002 186.013C361.224 187.973 361.097 190.117 361.637 192.15C357.738 192.252 354.035 193.818 351.317 196.514C348.6 199.21 347.083 202.822 347.091 206.581C347.094 207.277 347.147 207.972 347.25 208.661C347.274 208.821 347.356 208.967 347.482 209.074C347.608 209.18 347.769 209.239 347.937 209.24H413.617C413.801 209.236 413.979 209.177 414.126 209.071C414.274 208.966 414.383 208.818 414.439 208.649Z" fill="white"/>
<path d="M426.295 185.24C425.975 185.24 425.655 185.24 425.335 185.24H425.192C425.109 185.268 425.034 185.316 424.974 185.379C424.914 185.442 424.871 185.519 424.848 185.603L423.496 190.211C423.193 191.06 423.09 191.965 423.195 192.859C423.3 193.753 423.61 194.611 424.101 195.369C424.597 196.006 425.234 196.522 425.964 196.877C426.694 197.232 427.497 197.416 428.311 197.416L435.639 197.848C435.742 197.854 435.842 197.882 435.933 197.93C436.023 197.979 436.101 198.047 436.161 198.129C436.222 198.219 436.261 198.322 436.275 198.43C436.29 198.537 436.279 198.646 436.244 198.749C436.183 198.915 436.074 199.059 435.931 199.165C435.788 199.271 435.616 199.334 435.438 199.345L427.825 199.778C425.605 200.01 423.49 200.829 421.703 202.149C419.917 203.469 418.524 205.24 417.674 207.275L417.117 208.702C417.094 208.762 417.086 208.826 417.093 208.889C417.101 208.952 417.123 209.012 417.159 209.065C417.195 209.118 417.244 209.161 417.3 209.191C417.357 209.222 417.42 209.239 417.484 209.24H443.715C443.866 209.241 444.014 209.194 444.136 209.106C444.258 209.017 444.347 208.892 444.391 208.749C444.854 207.115 445.089 205.427 445.091 203.731C445.078 198.823 443.092 194.12 439.569 190.653C436.045 187.187 431.272 185.24 426.295 185.24Z" fill="white"/>
<path d="M264.091 218.24H268.462V230.355H276.091V234.24H264.091V218.24Z" fill="white"/>
<path d="M281.091 227.29C281.098 226.076 281.339 224.877 281.799 223.761C282.259 222.646 282.929 221.637 283.769 220.794C284.609 219.952 285.603 219.292 286.692 218.855C287.78 218.417 288.942 218.21 290.109 218.246C291.269 218.203 292.425 218.403 293.509 218.833C294.593 219.263 295.583 219.914 296.42 220.749C297.258 221.584 297.926 222.585 298.384 223.694C298.843 224.802 299.083 225.994 299.091 227.201C299.083 228.414 298.842 229.613 298.382 230.728C297.922 231.843 297.252 232.85 296.412 233.692C295.571 234.533 294.577 235.192 293.489 235.628C292.4 236.064 291.238 236.27 290.072 236.232C288.911 236.284 287.751 236.091 286.663 235.664C285.575 235.237 284.581 234.586 283.742 233.749C282.903 232.912 282.235 231.907 281.78 230.795C281.324 229.683 281.09 228.486 281.091 227.277M294.366 227.277C294.399 226.667 294.313 226.057 294.113 225.483C293.913 224.908 293.603 224.382 293.201 223.936C292.8 223.49 292.316 223.133 291.778 222.887C291.24 222.642 290.66 222.512 290.072 222.506C289.498 222.51 288.93 222.635 288.403 222.873C287.876 223.111 287.401 223.458 287.006 223.891C286.61 224.325 286.304 224.837 286.103 225.397C285.903 225.957 285.813 226.553 285.84 227.149C285.817 227.751 285.91 228.351 286.113 228.915C286.316 229.478 286.626 229.994 287.024 230.432C287.421 230.869 287.899 231.219 288.429 231.462C288.959 231.704 289.53 231.834 290.109 231.844C290.686 231.843 291.256 231.721 291.786 231.484C292.316 231.248 292.794 230.902 293.192 230.468C293.589 230.034 293.899 229.521 294.1 228.959C294.302 228.398 294.393 227.799 294.366 227.201" fill="white"/>
<path d="M304.102 228.164V218.24H308.629V228.06C308.629 230.661 309.813 231.831 311.591 231.831C313.368 231.831 314.553 230.661 314.553 228.19V218.24H319.091V228.034C319.091 233.743 316.117 236.24 311.543 236.24C306.97 236.24 304.091 233.639 304.091 228.164" fill="white"/>
<path d="M327.091 218.24H333.179C338.814 218.24 342.091 221.547 342.091 226.175C342.091 230.804 338.768 234.24 333.086 234.24H327.091V218.24ZM333.249 230.344C335.863 230.344 337.594 228.879 337.594 226.293C337.594 223.719 335.863 222.231 333.249 222.231H331.459V230.391L333.249 230.344Z" fill="white"/>
<path d="M349.091 218.24H363.091V222.125H353.946V224.845H362.215V228.53H353.946V234.24H349.091V218.24Z" fill="white"/>
<path d="M369.091 218.24H373.091V230.355H380.091V234.24H369.091V218.24Z" fill="white"/>
<path d="M392.965 218.24H397.252L404.091 234.24H399.366L398.185 231.398H391.996L390.815 234.24H386.091L392.965 218.24ZM396.862 227.971L395.079 223.457L393.272 227.971H396.862Z" fill="white"/>
<path d="M410.091 218.261H417.868C418.83 218.188 419.799 218.305 420.715 218.604C421.631 218.903 422.476 219.378 423.201 220.001C423.691 220.49 424.073 221.072 424.321 221.711C424.57 222.351 424.68 223.034 424.645 223.717C424.683 224.775 424.379 225.818 423.776 226.698C423.173 227.578 422.302 228.25 421.286 228.62L425.091 234.24H419.854L416.664 229.396H414.617V234.24H410.091V218.261ZM417.615 225.927C419.156 225.927 420.022 225.198 420.022 224.034C420.022 222.776 419.083 222.13 417.615 222.13H414.617V225.963L417.615 225.927Z" fill="white"/>
<path d="M432.091 218.24H444.973V222.019H436.479V224.433H444.17V227.93H436.479V230.473H445.091V234.24H432.091V218.24Z" fill="white"/>
<path d="M254.036 229.382C253.711 230.152 253.171 230.805 252.485 231.259C251.8 231.713 250.999 231.948 250.184 231.933C249.603 231.927 249.03 231.801 248.498 231.564C247.966 231.326 247.485 230.982 247.083 230.551C246.682 230.12 246.368 229.61 246.16 229.053C245.952 228.495 245.854 227.9 245.872 227.303C245.834 226.701 245.915 226.097 246.111 225.528C246.307 224.959 246.614 224.438 247.013 223.996C247.413 223.554 247.895 223.2 248.432 222.957C248.969 222.714 249.548 222.587 250.134 222.583C251.007 222.577 251.861 222.85 252.577 223.364C253.294 223.878 253.838 224.608 254.135 225.453H259.091C258.67 223.371 257.55 221.507 255.928 220.189C254.306 218.872 252.286 218.184 250.221 218.246C249.038 218.202 247.859 218.403 246.754 218.838C245.649 219.273 244.64 219.933 243.788 220.778C242.936 221.623 242.258 222.637 241.794 223.758C241.331 224.879 241.092 226.085 241.091 227.303C241.09 228.508 241.326 229.702 241.784 230.811C242.243 231.92 242.915 232.922 243.76 233.756C244.606 234.59 245.606 235.24 246.701 235.665C247.797 236.091 248.964 236.284 250.134 236.232C252.152 236.285 254.127 235.627 255.733 234.368C257.339 233.108 258.48 231.323 258.967 229.306L254.036 229.382Z" fill="white"/>
<path d="M241.091 259.24V247.245H246.117C247.082 247.208 248.041 247.382 248.903 247.749C249.605 248.062 250.178 248.548 250.544 249.142C250.904 249.76 251.091 250.438 251.091 251.126C251.091 251.814 250.904 252.493 250.544 253.111C250.175 253.706 249.604 254.195 248.903 254.515C248.053 254.876 247.108 255.05 246.156 255.019H242.614V253.484H245.908C246.494 253.505 247.077 253.4 247.601 253.177C248.02 252.993 248.357 252.701 248.565 252.344C248.781 251.963 248.896 251.548 248.903 251.126C248.91 250.711 248.808 250.299 248.604 249.92C248.382 249.56 248.031 249.269 247.601 249.087C247.061 248.872 246.467 248.77 245.869 248.791H243.187V259.24H241.091Z" fill="white"/>
<path d="M254.248 259.24H252.091L256.92 247.24H259.261L264.091 259.24H261.946L258.146 249.368H258.048L254.248 259.24ZM254.603 254.546H261.578V256.059H254.603V254.546Z" fill="white"/>
<path d="M268.091 259.24V247.244H272.9C273.801 247.214 274.697 247.376 275.514 247.715C276.168 248.011 276.709 248.473 277.067 249.042C277.413 249.65 277.587 250.324 277.573 251.005C277.59 251.677 277.412 252.342 277.055 252.935C276.702 253.503 276.159 253.959 275.501 254.24C274.686 254.571 273.795 254.728 272.9 254.7H269.2V253.143H272.727C273.279 253.159 273.829 253.073 274.342 252.891C274.726 252.738 275.045 252.481 275.255 252.156C275.442 251.815 275.539 251.44 275.538 251.06C275.545 250.627 275.426 250.2 275.193 249.821C274.996 249.483 274.673 249.215 274.281 249.064C273.791 248.874 273.261 248.78 272.727 248.79H270.125V259.24H268.091ZM274.761 253.823L278.091 259.24H275.773L272.505 253.823H274.761Z" fill="white"/>
<path d="M281.091 248.798V247.24H292.091V248.798H287.649V259.24H285.519V248.798H281.091Z" fill="white"/>
<path d="M306.091 247.24V259.24H304.025L296.469 250.465H296.333V259.24H294.091V247.24H296.211L303.767 256.015H303.916V247.24H306.091Z" fill="white"/>
<path d="M311.091 259.24V247.24H319.01V248.798H312.995V252.45H318.606V254.008H312.995V257.683H319.091V259.24H311.091Z" fill="white"/>
<path d="M323.091 259.186V247.243H327.408C328.217 247.215 329.021 247.376 329.755 247.713C330.341 248.005 330.824 248.465 331.139 249.034C331.458 249.636 331.618 250.308 331.604 250.988C331.619 251.657 331.459 252.319 331.139 252.909C330.822 253.474 330.334 253.928 329.744 254.208C329.011 254.536 328.212 254.693 327.408 254.666H324.087V253.116H327.198C327.69 253.132 328.18 253.047 328.637 252.865C328.986 252.719 329.274 252.462 329.456 252.134C329.633 251.797 329.724 251.422 329.722 251.042C329.732 250.634 329.641 250.229 329.456 249.863C329.275 249.529 328.987 249.264 328.637 249.11C328.177 248.911 327.677 248.818 327.176 248.837H324.917V259.24L323.091 259.186ZM329.091 253.793L332.091 259.186H329.987L327.054 253.793H329.091Z" fill="white"/>
<path d="M355.091 247.24V259.24H353.199L346.281 250.465H346.144V259.24H344.091V247.24H345.994L352.925 256.015H353.05V247.24H355.091Z" fill="white"/>
<path d="M359.091 259.24V247.24H367.091V248.798H361.001V252.45H366.616V254.008H361.001V257.683H367.091V259.24H359.091Z" fill="white"/>
<path d="M371.091 248.798V247.24H380.091V248.798H376.461V259.24H374.71V248.798H371.091Z" fill="white"/>
<path d="M388.708 259.24L385.091 247.24H387.189L389.757 256.531H389.877L392.554 247.24H394.628L397.304 256.542H397.425L399.993 247.24H402.091L398.474 259.24H396.472L393.687 250.246H393.591L390.806 259.24H388.708Z" fill="white"/>
<path d="M417.088 252.74C417.122 253.941 416.855 255.132 416.309 256.215C415.832 257.141 415.087 257.918 414.162 258.454C413.237 258.99 412.169 259.262 411.086 259.239C410.002 259.259 408.934 258.986 408.007 258.451C407.083 257.916 406.339 257.14 405.864 256.215C405.354 255.121 405.091 253.937 405.091 252.74C405.091 251.543 405.354 250.359 405.864 249.264C406.338 248.336 407.082 247.556 408.007 247.017C408.945 246.508 410.006 246.24 411.086 246.24C412.166 246.24 413.228 246.508 414.166 247.017C415.091 247.556 415.834 248.336 416.309 249.264C416.855 250.347 417.122 251.539 417.088 252.74ZM415.103 252.74C415.128 251.845 414.949 250.956 414.58 250.133C414.28 249.473 413.78 248.912 413.144 248.523C412.525 248.16 411.813 247.968 411.086 247.968C410.36 247.968 409.648 248.16 409.029 248.523C408.395 248.933 407.904 249.514 407.617 250.191C406.919 251.865 406.919 253.73 407.617 255.404C407.921 256.059 408.415 256.618 409.041 257.015C409.662 257.371 410.373 257.56 411.099 257.56C411.824 257.56 412.535 257.371 413.156 257.015C413.789 256.622 414.288 256.063 414.592 255.404C414.966 254.563 415.141 253.653 415.103 252.74Z" fill="white"/>
<path d="M422.091 259.186V247.244H426.9C427.797 247.214 428.689 247.375 429.501 247.713C430.156 248.007 430.696 248.467 431.055 249.034C431.41 249.636 431.589 250.308 431.573 250.988C431.59 251.657 431.412 252.319 431.055 252.909C430.702 253.474 430.159 253.928 429.501 254.208C428.685 254.536 427.795 254.693 426.9 254.666H423.2V253.116H426.665C427.213 253.133 427.76 253.047 428.268 252.865C428.657 252.719 428.978 252.462 429.181 252.134C429.378 251.797 429.48 251.422 429.477 251.042C429.488 250.634 429.387 250.229 429.181 249.864C428.977 249.532 428.656 249.267 428.268 249.11C427.752 248.91 427.191 248.817 426.628 248.837H424.101V259.24L422.091 259.186ZM428.749 253.793L432.091 259.186H429.773L426.493 253.793H428.749Z" fill="white"/>
<path d="M435.091 259.24V247.24H437.043V253.021H437.197L442.605 247.24H445.067L439.848 252.637L445.091 259.218H442.724L438.534 253.854L437.008 255.489V259.218L435.091 259.24Z" fill="white"/>
<path d="M202.974 314.085L193.085 321.549L200.542 331.443L210.432 323.979L202.974 314.085Z" fill="#E26986"/>
<path d="M487.591 66.2402C491.733 66.2402 495.091 62.8824 495.091 58.7402C495.091 54.5981 491.733 51.2402 487.591 51.2402C483.449 51.2402 480.091 54.5981 480.091 58.7402C480.091 62.8824 483.449 66.2402 487.591 66.2402Z" fill="#CE2F55"/>
<path d="M540.091 182.24H529.091V193.24H540.091V182.24Z" fill="#CE2F55"/>
<defs>
<radialGradient id="paint0_radial_1855_1646" cx="0" cy="0" r="1" gradientUnits="userSpaceOnUse" gradientTransform="translate(346.432 239.502) rotate(89.6891) scale(104.74 143.193)">
<stop stop-color="#FF6633"/>
<stop offset="1" stop-color="#FF6633" stop-opacity="0"/>
</radialGradient>
<linearGradient id="paint1_linear_1855_1646" x1="313.807" y1="156.121" x2="371.823" y2="231.604" gradientUnits="userSpaceOnUse">
<stop stop-color="#CE2F55"/>
<stop offset="1" stop-color="#CE2F55" stop-opacity="0"/>
</linearGradient>
<linearGradient id="paint2_linear_1855_1646" x1="354.898" y1="147.986" x2="342.192" y2="242.337" gradientUnits="userSpaceOnUse">
<stop stop-color="#CE2F55"/>
<stop offset="1" stop-color="#CE2F55" stop-opacity="0"/>
</linearGradient>
</defs>
</svg>
