<?xml version="1.0" encoding="UTF-8"?> <svg xmlns="http://www.w3.org/2000/svg" width="500" height="500" viewBox="0 0 500 500" fill="none"><rect width="500" height="500" fill="#DB3244"></rect><path d="M249.043 322.698C257.577 325.878 262.765 332.906 264.606 343.783C266.446 354.661 266.446 365.872 267.116 377.084C267.45 381.937 267.116 386.957 267.116 392.145C299.747 392.145 306.106 392.145 337.566 392.145C337.901 391.141 338.068 390.137 338.403 389.133C323.677 378.088 317.653 376.917 308.114 376.917C305.437 376.917 302.592 377.084 299.245 377.084C296.066 377.084 292.217 377.084 287.866 376.75C287.866 374.239 287.699 372.231 287.866 370.223C290.042 347.298 292.217 324.205 294.392 301.279C282.679 307.972 265.442 317.344 249.043 322.698Z" fill="white"></path><path d="M392.287 200.205C394.462 192.675 395.968 185.144 397.809 177.279C402.16 177.279 406.343 177.447 410.359 177.447C413.372 177.447 416.384 177.447 419.396 177.112C422.408 176.944 427.261 175.438 427.763 173.598C428.6 170.753 427.094 166.402 425.253 163.725C422.91 160.21 417.89 158.37 416.216 154.855C411.866 145.819 405.507 139.795 395.466 137.619C399.482 128.081 402.16 119.212 395.968 110.008C387.266 115.865 385.593 125.236 382.413 134.775C378.063 120.885 371.871 109.841 355.974 108C354.3 123.395 358.818 135.946 369.026 146.656C370.867 148.497 372.875 152.011 372.373 154.186C367.52 174.267 356.141 191.67 332.546 194.181C308.616 196.691 284.017 198.197 261.593 205.392C225.28 216.939 201.518 242.877 198.338 282.035C197 298.936 200.514 316.34 202.689 333.408C206.036 360.183 199.342 370.558 172.401 373.235C141.61 376.415 110.819 377.419 79.861 379.26C77.5182 379.427 75.3428 379.594 73 379.762C76.1795 381.937 79.1916 383.276 82.2038 384.113C103.456 389.802 124.876 392.48 146.463 392.48C161.691 392.48 176.919 391.141 192.314 388.631C218.921 384.28 230.301 370.893 232.141 343.783C232.643 336.086 232.141 328.221 232.141 320.523C232.141 320.523 273.809 305.295 299.914 288.394C306.106 284.377 312.13 280.361 318.322 276.345C327.693 270.321 336.897 264.464 346.268 258.272C357.145 281.365 350.786 301.948 344.092 316.507C346.268 317.344 348.443 317.846 350.284 317.846C356.141 317.846 359.99 313.662 360.994 304.96C362.667 288.226 362.333 271.157 362.835 254.256C363.002 251.746 363.337 248.232 364.843 246.893C379.569 234.342 387.099 217.943 392.287 200.205Z" fill="white"></path></svg> 