<?xml version="1.0" encoding="UTF-8"?> <svg xmlns="http://www.w3.org/2000/svg" width="204" height="72" viewBox="0 0 204 72" fill="none"><path d="M69.3087 54.9129C69.0163 54.9129 68.7656 54.8711 68.4731 54.8293V71.415H73.57V52.072C73.57 51.6542 73.4865 51.3618 73.3611 51.0693C72.7345 54.6204 70.1442 54.9129 69.3087 54.9129Z" fill="#DB3244"></path><path d="M94.4175 60.6365C93.7908 60.1769 93.0388 59.8009 92.2033 59.5503C91.3677 59.2996 90.5322 59.0907 89.6966 58.9236C88.8193 58.7565 87.9837 58.6312 87.1899 58.5058C86.3544 58.3805 85.6442 58.2134 84.9757 58.0463C84.3491 57.8792 83.806 57.6285 83.43 57.3361C83.054 57.0436 82.8451 56.6676 82.8451 56.1663C82.8451 55.5814 83.0957 55.0801 83.6389 54.6623C84.1402 54.2445 84.8086 53.9521 85.6024 53.785C86.3962 53.6179 87.2735 53.5343 88.1926 53.5343C89.1117 53.5761 90.0308 53.6596 90.8664 53.9103C91.7019 54.1192 92.4122 54.4952 93.0388 54.913C93.6655 55.3725 94.0415 55.9156 94.1668 56.6258C94.8353 56.4587 95.253 56.1663 95.5037 55.7485C95.7126 55.3307 95.8379 54.8294 95.8379 54.2445C95.8379 53.5761 95.6708 52.9912 95.3784 52.4899C95.0441 51.9885 94.6264 51.5708 94.125 51.2365C93.5819 50.9023 92.997 50.6099 92.3704 50.401C91.7019 50.1921 91.0753 50.025 90.4068 49.8579C89.7384 49.7325 89.1535 49.649 88.5686 49.6072C87.9837 49.5654 87.4824 49.5654 87.1064 49.5654C85.7695 49.5654 84.4744 49.6908 83.2629 49.9414C82.0513 50.1921 80.9651 50.6099 80.046 51.153C79.1269 51.6961 78.3749 52.4481 77.8318 53.3254C77.2887 54.2027 76.9962 55.3307 76.9962 56.5841C76.9962 57.6703 77.2051 58.5894 77.5811 59.3414C77.9571 60.0934 78.5002 60.6783 79.1269 61.1796C79.7535 61.6809 80.4638 62.0569 81.2993 62.3076C82.1349 62.5583 82.9286 62.8089 83.7642 62.976C84.5997 63.1431 85.4353 63.3103 86.2291 63.3938C87.0646 63.5191 87.7748 63.6445 88.4015 63.8116C89.0282 63.9787 89.5295 64.2294 89.9473 64.48C90.3233 64.7307 90.5322 65.1067 90.5322 65.608C90.5322 66.1511 90.2397 66.5689 89.6966 66.9449C89.1117 67.2791 88.4015 67.5716 87.5242 67.7387C86.6468 67.9058 85.7277 67.9894 84.6833 67.9476C83.6389 67.9058 82.678 67.7805 81.7589 67.5716C80.8398 67.3627 80.046 67.0285 79.3775 66.5689C78.7091 66.1511 78.2913 65.608 78.166 64.9396C77.9153 64.9814 77.7064 65.1067 77.5393 65.3156C77.3722 65.4827 77.2469 65.6916 77.1215 65.9005C76.9962 66.1094 76.9127 66.36 76.8709 66.6525C76.8291 66.9031 76.8291 67.1538 76.8291 67.4045C76.8291 68.1982 77.1215 68.8667 77.7064 69.4098C78.2913 69.9529 79.0433 70.4125 79.9624 70.7467C80.8815 71.0809 81.8842 71.3316 83.0122 71.4987C84.0984 71.6658 85.1846 71.7493 86.1455 71.7493C87.4824 71.7493 88.7775 71.624 90.0308 71.4151C91.2842 71.2062 92.4121 70.8302 93.373 70.2871C94.3339 69.7858 95.1277 69.0756 95.7544 68.24C96.3392 67.4045 96.6317 66.3182 96.6317 65.1067C96.6317 64.0623 96.4228 63.1849 96.0468 62.4747C95.5872 61.6809 95.0859 61.096 94.4175 60.6365Z" fill="#DB3244"></path><path d="M116.017 52.6988C116.017 51.6962 115.891 50.9442 115.599 50.4846C115.306 50.0251 114.68 49.7744 113.677 49.7744H97.8433V50.9442C97.8433 51.4037 97.8433 51.8633 97.885 52.2393C97.9268 52.6153 98.0521 52.9495 98.2193 53.2002C98.3864 53.4508 98.637 53.6597 98.9713 53.7851C99.3055 53.9104 99.765 53.994 100.308 53.994H104.361V71.457H109.499V53.994H116.017V52.6988Z" fill="#DB3244"></path><path d="M127.756 50.359C127.38 50.0665 126.921 49.8577 126.419 49.7323C125.918 49.607 125.375 49.5234 124.79 49.5234C124.205 49.5234 123.662 49.5234 123.119 49.607C122.576 49.6488 122.116 49.7741 121.699 49.8994C121.281 50.0248 120.988 50.1919 120.821 50.359L114.429 71.4149H119.651L120.529 68.3234H128.884L129.929 71.4149H135.36L128.55 51.487C128.425 51.0274 128.174 50.6514 127.756 50.359ZM121.657 64.438L124.581 55.1634L127.714 64.438H121.657Z" fill="#DB3244"></path><path d="M155.997 62.4745C156.624 61.3047 156.917 59.759 156.917 57.879C156.917 56.2079 156.666 54.871 156.165 53.7848C155.663 52.6985 154.911 51.863 153.992 51.2363C153.031 50.6097 151.861 50.1501 150.483 49.8994C149.104 49.6488 147.558 49.5234 145.804 49.5234C144.592 49.5234 143.297 49.5652 141.918 49.6488C140.54 49.7323 139.078 49.8577 137.532 50.0248V71.3731H142.629V65.9838L147.684 66.0256L151.068 71.3313H157.669L153.031 65.0647C154.368 64.5634 155.371 63.686 155.997 62.4745ZM151.193 60.511C150.984 61.1376 150.525 61.5554 149.856 61.8478C149.188 62.1403 148.31 62.2656 147.141 62.3074C145.971 62.3492 144.467 62.3074 142.629 62.2656V53.7012C144.216 53.6176 145.553 53.5759 146.639 53.5759C147.767 53.6176 148.686 53.7848 149.397 54.0772C150.107 54.3696 150.65 54.8292 150.984 55.4559C151.318 56.0825 151.485 56.9181 151.485 58.0043C151.527 59.0905 151.402 59.9261 151.193 60.511Z" fill="#DB3244"></path><path d="M178.056 52.114C177.179 51.1949 176.093 50.4847 174.714 50.0251C173.377 49.5656 171.748 49.3567 169.826 49.3567C167.904 49.3567 166.275 49.5656 164.938 50.0251C163.601 50.4847 162.515 51.1531 161.679 52.114C160.844 53.0331 160.217 54.2447 159.841 55.6651C159.465 57.0855 159.256 58.7984 159.256 60.7202C159.256 62.642 159.465 64.3131 159.841 65.6917C160.217 67.0704 160.844 68.1984 161.679 69.1175C162.515 69.9948 163.601 70.6633 164.938 71.081C166.275 71.4988 167.904 71.7077 169.826 71.7077C171.706 71.7077 173.335 71.4988 174.714 71.081C176.051 70.6633 177.179 69.9948 178.056 69.1175C178.934 68.2402 179.56 67.0704 179.978 65.6917C180.396 64.3131 180.563 62.642 180.563 60.6784C180.563 58.7566 180.354 57.0438 179.978 55.6233C179.56 54.2447 178.934 53.0331 178.056 52.114ZM174.087 65.9006C173.252 66.9451 171.831 67.4882 169.826 67.4882C168.865 67.4882 168.03 67.3628 167.361 67.1122C166.693 66.8615 166.108 66.4437 165.69 65.9006C165.272 65.3575 164.938 64.6891 164.771 63.8535C164.562 63.018 164.479 62.0153 164.479 60.8455C164.479 59.6758 164.562 58.6731 164.771 57.7958C164.98 56.9602 165.272 56.25 165.69 55.7069C166.108 55.1638 166.651 54.746 167.361 54.4953C168.03 54.2447 168.865 54.0776 169.826 54.0776C171.831 54.0776 173.252 54.6207 174.087 55.7069C174.923 56.7931 175.341 58.506 175.341 60.8873C175.341 63.1433 174.923 64.8562 174.087 65.9006Z" fill="#DB3244"></path><path d="M203.415 55.6651C202.997 54.2447 202.371 53.0749 201.493 52.114C200.616 51.1949 199.53 50.4847 198.151 50.0251C196.814 49.5656 195.185 49.3567 193.263 49.3567C191.341 49.3567 189.712 49.5656 188.375 50.0251C187.038 50.4847 185.952 51.1531 185.116 52.114C184.281 53.0331 183.654 54.2447 183.278 55.6651C182.902 57.0855 182.693 58.7984 182.693 60.7202C182.693 62.642 182.902 64.3131 183.278 65.6917C183.654 67.0704 184.281 68.1984 185.116 69.1175C185.952 69.9948 187.038 70.6633 188.375 71.081C189.712 71.4988 191.341 71.7077 193.263 71.7077C195.143 71.7077 196.772 71.4988 198.151 71.081C199.488 70.6633 200.616 69.9948 201.493 69.1175C202.371 68.2402 202.997 67.0704 203.415 65.6917C203.833 64.3131 204 62.642 204 60.6784C204 58.7566 203.791 57.0855 203.415 55.6651ZM197.524 65.9006C196.689 66.9451 195.268 67.4882 193.263 67.4882C192.302 67.4882 191.467 67.3628 190.798 67.1122C190.13 66.8615 189.545 66.4437 189.127 65.9006C188.709 65.3575 188.375 64.6891 188.208 63.8535C187.999 63.018 187.916 62.0153 187.916 60.8455C187.916 59.6758 187.999 58.6731 188.208 57.7958C188.417 56.9602 188.709 56.25 189.127 55.7069C189.545 55.1638 190.088 54.746 190.798 54.4953C191.467 54.2447 192.302 54.0776 193.263 54.0776C195.268 54.0776 196.689 54.6207 197.524 55.7069C198.36 56.7931 198.778 58.506 198.778 60.8873C198.778 63.1433 198.36 64.8562 197.524 65.9006Z" fill="#DB3244"></path><path d="M43.9497 54.5787C46.0804 55.3725 47.3755 57.1272 47.835 59.8427C48.2946 62.5583 48.2946 65.3574 48.4617 68.1565C48.5452 69.368 48.4617 70.6213 48.4617 71.9164C56.6083 71.9164 58.1959 71.9164 66.0501 71.9164C66.1336 71.6658 66.1754 71.4151 66.259 71.1644C62.5825 68.4071 61.0785 68.1147 58.6972 68.1147C58.0288 68.1147 57.3185 68.1565 56.483 68.1565C55.6892 68.1565 54.7283 68.1565 53.6421 68.0729C53.6421 67.4462 53.6003 66.9449 53.6421 66.4436C54.1852 60.72 54.7283 54.9547 55.2714 49.2312C52.347 50.9023 48.0439 53.2419 43.9497 54.5787Z" fill="#DB3244"></path><path d="M79.7117 23.9975C80.2548 22.1175 80.6308 20.2375 81.0903 18.274C82.1766 18.274 83.221 18.3157 84.2237 18.3157C84.9757 18.3157 85.7277 18.3157 86.4797 18.2322C87.2317 18.1904 88.4432 17.8144 88.5685 17.3549C88.7774 16.6446 88.4014 15.5584 87.9419 14.89C87.357 14.0126 86.1037 13.5531 85.6859 12.6758C84.5997 10.4198 83.0121 8.91577 80.5055 8.37267C81.5081 5.99134 82.1766 3.77713 80.6308 1.47936C78.4584 2.94158 78.0406 5.28112 77.2468 7.66245C76.1606 4.1949 74.6148 1.43758 70.6459 0.978027C70.2282 4.82157 71.3562 7.95489 73.9046 10.6287C74.3642 11.0882 74.8655 11.9655 74.7402 12.5086C73.5286 17.522 70.6877 21.8668 64.7971 22.4935C58.8229 23.1202 52.6816 23.4962 47.0834 25.2926C38.0176 28.1753 32.0852 34.6508 31.2914 44.4267C30.9572 48.6463 31.8345 52.9912 32.3776 57.2525C33.2132 63.9369 31.5421 66.5271 24.8159 67.1955C17.1288 67.9893 9.44174 68.24 1.71288 68.6995C1.128 68.7413 0.584887 68.7831 0 68.8249C0.793775 69.368 1.54577 69.7022 2.29777 69.9111C7.60353 71.3315 12.9511 72 18.3404 72C22.1421 72 25.9439 71.6657 29.7874 71.0391C36.4301 69.9529 39.271 66.6107 39.7305 59.8427C39.8558 57.9209 39.7305 55.9574 39.7305 54.0356C39.7305 54.0356 50.1331 50.2338 56.6504 46.0143C58.1962 45.0116 59.7002 44.009 61.246 43.0063C63.5855 41.5023 65.8833 40.0401 68.2228 38.4943C70.9384 44.2596 69.3508 49.3983 67.6797 53.0329C68.2228 53.2418 68.766 53.3672 69.2255 53.3672C70.6877 53.3672 71.6486 52.3227 71.8993 50.1503C72.317 45.9725 72.2335 41.7112 72.3588 37.4917C72.4006 36.865 72.4842 35.9877 72.8602 35.6534C76.5366 32.5201 78.4166 28.4259 79.7117 23.9975Z" fill="#DB3244"></path></svg> 